<?xml version="1.0" standalone="no"?>
<!DOCTYPE svg PUBLIC "-//W3C//DTD SVG 20010904//EN"
 "http://www.w3.org/TR/2001/REC-SVG-20010904/DTD/svg10.dtd">
<svg version="1.0" xmlns="http://www.w3.org/2000/svg"
 width="1280.000000pt" height="1167.000000pt" viewBox="0 0 1280.000000 1167.000000"
 preserveAspectRatio="xMidYMid meet">
<metadata>
Created by potrace 1.15, written by Peter Selinger 2001-2017
</metadata>
<g transform="translate(0.000000,1167.000000) scale(0.100000,-0.100000)"
fill="#000000" stroke="none">
<path d="M3330 10880 c-463 -49 -700 -248 -796 -669 -29 -129 -30 -151 -6
-151 10 0 155 -11 322 -25 167 -14 320 -25 340 -25 l37 0 17 79 c42 197 134
289 297 299 109 6 168 -15 240 -87 66 -66 84 -118 77 -214 -12 -147 -128 -281
-468 -541 -394 -302 -587 -484 -719 -678 -89 -132 -174 -344 -204 -510 l-15
-78 1074 0 1074 0 0 290 0 290 -550 0 c-302 0 -550 3 -549 8 1 18 185 167 356
290 399 285 549 434 649 645 56 120 69 184 69 342 -1 125 -4 148 -28 217 -97
281 -321 451 -662 503 -121 19 -438 27 -555 15z"/>
<path d="M5887 10879 c-276 -31 -498 -139 -632 -310 -83 -106 -184 -325 -159
-348 8 -8 621 -121 656 -121 10 0 18 13 22 38 39 222 178 332 369 293 76 -16
129 -57 162 -125 24 -49 27 -65 23 -128 -5 -86 -26 -137 -83 -193 -67 -68
-124 -89 -237 -90 l-98 0 0 -30 c0 -16 -7 -113 -15 -215 -8 -102 -15 -204 -15
-227 l0 -41 58 16 c35 10 98 16 167 16 101 1 115 -1 167 -27 99 -49 149 -124
170 -262 23 -146 -20 -285 -113 -369 -59 -53 -128 -78 -214 -78 -146 0 -247
73 -302 217 -17 44 -34 97 -37 118 -6 30 -11 37 -29 37 -38 0 -688 -88 -694
-94 -9 -9 46 -155 90 -239 142 -267 374 -421 707 -468 139 -20 451 -17 574 5
316 57 523 198 650 445 70 136 88 205 93 361 4 105 2 150 -11 200 -50 201
-203 355 -409 415 l-59 17 65 43 c187 126 276 273 285 470 7 185 -46 323 -175
451 -112 111 -248 173 -458 209 -112 19 -401 27 -518 14z"/>
<path d="M1274 10798 c-69 -137 -218 -307 -348 -397 -92 -63 -281 -157 -408
-201 l-98 -34 0 -293 c0 -235 3 -293 13 -293 7 0 51 13 98 29 215 73 362 145
531 257 l108 72 0 -849 0 -849 365 0 365 0 0 1305 0 1305 -300 0 -300 0 -26
-52z"/>
<path d="M8377 10083 l-647 -768 0 -297 0 -298 645 -2 646 -3 2 -235 2 -235
312 -3 313 -2 2 237 3 238 163 3 162 2 0 280 0 280 -162 2 -163 3 -3 783 -2
782 -313 0 -313 0 -647 -767z m653 -408 c0 -301 -3 -387 -13 -390 -7 -3 -158
-4 -336 -3 l-323 3 328 387 c181 213 332 387 337 388 4 0 7 -173 7 -385z"/>
<path d="M10770 10805 c0 -3 -49 -307 -110 -676 -60 -370 -110 -679 -110 -688
0 -14 48 -23 303 -59 l302 -43 50 47 c106 99 204 139 330 132 193 -11 299
-122 326 -342 30 -241 -44 -432 -197 -507 -67 -33 -196 -34 -266 -2 -99 46
-188 162 -204 269 -3 25 -12 48 -19 50 -12 5 -653 -61 -702 -71 l-22 -5 25
-73 c164 -456 515 -655 1123 -634 107 4 198 13 256 25 389 84 640 342 721 742
23 116 16 326 -16 425 -69 219 -232 403 -437 496 -119 55 -220 73 -393 73
-166 0 -247 -15 -388 -71 -35 -14 -66 -23 -68 -20 -3 3 7 84 22 181 l28 176
573 0 573 0 0 290 0 290 -850 0 c-467 0 -850 -2 -850 -5z"/>
<path d="M8860 7499 c-364 -45 -602 -216 -735 -526 -47 -109 -67 -215 -67
-358 0 -256 78 -459 241 -623 78 -80 136 -121 234 -167 103 -49 176 -66 308
-72 208 -10 369 42 527 171 l78 63 -8 -76 c-21 -202 -57 -370 -95 -445 -23
-45 -93 -116 -138 -138 -23 -13 -68 -23 -107 -26 -127 -9 -215 59 -255 198 -8
30 -18 58 -22 62 -6 7 -700 -77 -709 -86 -8 -8 26 -93 74 -185 143 -273 361
-401 735 -432 314 -27 592 34 799 174 68 46 187 165 232 230 56 82 123 228
152 327 103 363 97 906 -13 1233 -41 120 -113 252 -188 346 -139 174 -320 275
-568 317 -111 19 -374 26 -475 13z m323 -465 c68 -23 157 -107 191 -183 84
-189 53 -447 -68 -559 -78 -72 -118 -87 -226 -87 -87 0 -100 3 -149 30 -134
74 -202 234 -188 444 19 287 201 434 440 355z"/>
<path d="M11610 7504 c-170 -21 -322 -60 -415 -107 -75 -37 -187 -121 -237
-176 -169 -189 -251 -476 -265 -931 -13 -451 57 -819 196 -1032 145 -223 331
-341 611 -389 109 -19 392 -16 510 5 195 35 339 100 450 203 210 195 313 514
327 1019 8 282 -21 545 -84 763 -99 343 -345 568 -688 631 -63 11 -346 21
-405 14z m246 -509 c160 -78 214 -286 214 -826 0 -466 -37 -642 -159 -751 -55
-50 -104 -68 -180 -68 -116 0 -205 76 -259 223 -89 237 -90 986 -2 1241 23 68
69 137 112 167 75 54 182 59 274 14z"/>
<path d="M1355 7385 c-268 -43 -491 -165 -630 -345 -179 -233 -257 -528 -258
-975 0 -483 93 -791 312 -1027 190 -204 424 -288 806 -288 243 0 402 32 555
111 276 142 440 434 440 779 0 191 -44 350 -135 491 -172 267 -461 403 -776
368 -159 -18 -272 -67 -405 -177 l-64 -54 0 31 c0 47 29 259 47 336 45 204
157 317 313 318 118 1 191 -59 232 -190 18 -59 26 -73 43 -73 22 0 689 81 693
85 6 5 -41 122 -78 193 -126 243 -328 377 -630 417 -128 18 -356 18 -465 0z
m334 -1356 c102 -44 179 -156 200 -289 49 -301 -70 -522 -290 -538 -160 -11
-292 81 -350 244 -26 72 -36 224 -20 309 44 234 260 363 460 274z"/>
<path d="M6355 7389 c-119 -16 -253 -57 -348 -106 -122 -63 -257 -193 -310
-299 -92 -183 -84 -408 18 -579 47 -78 100 -131 185 -186 38 -24 69 -46 69
-49 0 -3 -37 -22 -81 -44 -117 -56 -214 -154 -267 -267 -83 -180 -91 -384 -22
-587 40 -115 84 -184 176 -277 117 -118 244 -180 460 -222 72 -14 143 -18 360
-18 244 0 281 2 385 23 311 63 499 201 610 446 51 111 64 179 64 321 0 116 -3
139 -28 210 -36 105 -76 173 -143 246 -47 50 -171 144 -215 162 -9 4 -4 13 17
29 67 51 160 147 197 202 56 86 89 200 89 307 1 188 -48 308 -180 440 -129
128 -265 194 -488 235 -105 19 -445 27 -548 13z m371 -457 c65 -33 101 -69
130 -129 38 -76 39 -193 4 -266 -80 -167 -315 -208 -462 -79 -72 64 -105 199
-74 307 22 75 100 156 172 179 67 22 176 16 230 -12z m15 -1014 c59 -35 134
-116 162 -175 18 -41 22 -66 22 -168 0 -109 -2 -125 -27 -177 -107 -228 -362
-273 -527 -93 -72 79 -95 144 -94 270 0 150 43 244 144 318 63 46 104 58 195
54 65 -3 89 -8 125 -29z"/>
<path d="M3000 7055 l0 -305 630 -2 630 -3 -63 -80 c-230 -292 -422 -616 -532
-899 -83 -211 -161 -512 -205 -791 -11 -72 -23 -142 -26 -157 l-6 -28 361 0
c199 0 361 3 361 8 0 29 34 299 51 396 68 412 238 852 455 1179 87 130 220
291 338 407 l96 95 0 242 0 243 -1045 0 -1045 0 0 -305z"/>
<path d="M4477 4064 c-4 -4 -7 -45 -7 -91 l0 -83 -39 0 c-55 0 -204 -27 -286
-51 -207 -62 -373 -195 -459 -369 -55 -113 -76 -201 -76 -332 0 -181 48 -322
154 -450 113 -136 238 -200 619 -313 l87 -26 0 -299 c0 -165 -3 -300 -8 -300
-4 0 -25 12 -47 26 -101 67 -141 128 -177 269 -17 67 -25 84 -37 81 -9 -3
-168 -22 -353 -43 -390 -44 -354 -25 -313 -166 47 -165 106 -267 217 -377 149
-148 327 -228 588 -265 61 -8 115 -15 120 -15 6 0 10 -66 10 -165 l0 -165 135
0 135 0 0 165 0 165 33 0 c57 0 230 29 302 51 354 106 605 430 605 779 0 119
-24 221 -75 325 -113 227 -288 340 -731 473 l-129 39 -3 247 -2 247 22 -12
c54 -29 116 -101 149 -174 20 -44 40 -74 49 -75 26 0 632 98 637 104 11 11
-19 104 -63 193 -73 148 -203 274 -352 340 -81 36 -222 71 -339 85 l-102 12
-3 86 -3 85 -126 3 c-69 1 -128 -1 -132 -4z m-7 -849 c0 -118 -2 -215 -5 -215
-3 0 -27 11 -54 24 -174 89 -174 299 0 384 24 11 47 21 52 22 4 0 7 -97 7
-215z m353 -978 c130 -60 187 -133 187 -238 0 -63 -32 -140 -76 -181 -34 -31
-119 -76 -163 -84 l-31 -6 0 271 c0 149 3 271 6 271 3 0 38 -15 77 -33z"/>
<path d="M6715 3895 c-203 -45 -342 -149 -425 -319 -51 -105 -70 -178 -77
-301 -16 -282 113 -527 339 -641 100 -50 191 -68 353 -68 166 -1 251 16 364
73 138 70 247 200 297 354 35 108 44 302 20 417 -50 240 -228 422 -467 480
-100 24 -308 26 -404 5z m265 -307 c82 -42 120 -154 120 -353 0 -229 -55 -354
-162 -371 -96 -16 -161 30 -199 143 -21 60 -24 86 -24 223 0 134 3 165 23 225
27 84 56 122 108 140 55 20 83 18 134 -7z"/>
<path d="M8369 3888 c-7 -13 -336 -624 -732 -1358 -395 -734 -722 -1340 -724
-1347 -4 -11 31 -13 182 -11 l187 3 292 540 c160 297 478 884 705 1305 228
421 429 793 448 828 l35 62 -191 0 c-187 0 -190 0 -202 -22z"/>
<path d="M1320 3878 c-1 -2 -29 -142 -63 -313 l-63 -310 -262 -3 -262 -2 0
-245 0 -245 211 0 211 0 -6 -37 c-4 -21 -23 -118 -43 -215 l-37 -178 -168 0
-168 0 0 -245 0 -245 120 0 c120 0 120 0 115 -23 -13 -55 -115 -572 -115 -584
0 -10 51 -13 248 -13 l249 0 20 98 c12 53 40 193 64 310 l42 212 189 0 188 0
-5 -22 c-13 -56 -115 -573 -115 -585 0 -10 51 -13 250 -13 138 0 250 1 250 3
1 1 29 139 63 307 l62 305 263 3 262 2 0 245 0 245 -214 0 -213 0 38 193 c21
105 41 202 44 215 5 22 7 22 175 22 l170 0 0 245 0 245 -120 0 c-66 0 -120 4
-120 8 0 4 27 143 60 307 33 164 60 303 60 307 0 7 -499 12 -500 6 -1 -2 -29
-142 -63 -313 l-63 -310 -187 -3 c-103 -1 -187 0 -187 2 0 3 27 139 60 302 33
163 60 303 60 310 0 12 -45 14 -250 14 -137 0 -250 -1 -250 -2z m650 -1130 c0
-6 -19 -103 -42 -215 l-42 -203 -188 0 -188 0 5 23 c3 12 21 99 40 192 19 94
37 180 40 193 5 22 7 22 190 22 133 0 185 -3 185 -12z"/>
<path d="M8592 2520 c-331 -60 -532 -309 -533 -661 0 -419 262 -680 685 -680
136 0 215 13 316 52 182 70 311 221 367 429 24 88 24 299 0 390 -59 226 -227
395 -452 456 -71 19 -305 27 -383 14z m238 -315 c42 -22 68 -60 93 -139 18
-60 22 -94 22 -216 -1 -257 -58 -370 -188 -370 -139 0 -198 110 -198 370 0
192 34 304 106 350 37 24 123 27 165 5z"/>
</g>
</svg>
