<?xml version="1.0" encoding="utf-8"?>
<!-- Generator: Adobe Illustrator 25.1.0, SVG Export Plug-In . SVG Version: 6.00 Build 0)  -->
<svg version="1.1" id="Layer_1" xmlns="http://www.w3.org/2000/svg" xmlns:xlink="http://www.w3.org/1999/xlink" x="0px" y="0px"
	 viewBox="0 0 1366 768" enable-background="new 0 0 1366 768" xml:space="preserve">
<g>
	<g>
		<path d="M813.98,118.69c-24.06-2.17-48.23-0.16-72.14,2.73c-23.99,2.9-47.91,6.7-72.06,8.1c-11.94,0.69-23.92,0.78-35.85-0.17
			c-6.04-0.48-12.05-1.23-18.01-2.3c-2.82-0.51-5.6-1.19-8.42-1.7c-2.29-0.42-4.79-0.55-6.74,0.92c-1.9,1.43-2.43,3.8-2.92,6
			c-0.68,3.07-1.33,6.15-1.96,9.24c-1.28,6.28-2.45,12.58-3.52,18.9c-2.12,12.55-3.82,25.17-5.11,37.84
			c-2.58,25.39-3.48,50.96-2.66,76.48c0.1,3.15,0.23,6.29,0.38,9.44c0.05,1.11,1.24,1.9,2.26,1.3
			c33.63-20.15,74.46-21.19,112.56-20.48c18.48,0.34,38.4,1.62,53.9,12.83c15.18,10.97,23.63,29.16,31.62,45.52
			c9.02,18.45,17.02,37.55,21.87,57.55c2.43,10.02,4.05,20.24,4.53,30.55c0.43,9.21,0.54,19.23-3.14,27.87
			c-3.74,8.78-11.7,13.63-20.35,16.73c-9.82,3.52-20.15,5.83-30.43,7.53c-20.54,3.39-41.57,4-62.35,3.42
			c-31.73-0.89-67.61-5.95-91.54-28.86c-2.89-2.77-5.57-5.77-7.97-8.97c-1.15-1.53-3.75-0.03-2.59,1.51
			c9.97,13.27,23.81,22.55,39.17,28.52c16.04,6.23,33.28,8.98,50.38,10.19c20.22,1.43,40.8,1.16,60.96-0.94
			c10.92-1.14,21.79-2.93,32.42-5.68c9.18-2.37,18.99-5.06,26.55-11.04c7.43-5.89,10.57-14.76,11.58-23.91
			c1.1-9.98,0.38-20.25-0.98-30.16c-2.88-21.01-9.88-41.21-18.41-60.55c-4.23-9.57-8.82-19-13.69-28.27
			c-4.35-8.27-9.13-16.39-15.24-23.5c-6.16-7.17-13.69-12.82-22.42-16.46c-8.92-3.72-18.55-5.35-28.13-6.15
			c-9.76-0.81-19.59-0.84-29.38-0.84c-10.09,0-20.18,0.26-30.24,1.06c-19.66,1.57-39.32,5.23-57.41,13.3
			c-4.39,1.96-8.66,4.19-12.79,6.66c0.75,0.43,1.5,0.86,2.26,1.3c-1.19-24.94-0.78-49.95,1.27-74.83
			c2.06-25.08,5.79-50.03,11.14-74.62c0.5-2.3,0.69-6.14,3.59-6.6c2.58-0.41,5.54,0.75,8.05,1.25c5.59,1.11,11.24,1.94,16.91,2.54
			c11.57,1.21,23.23,1.39,34.85,0.92c23.72-0.95,47.22-4.5,70.74-7.48c23.39-2.97,46.99-5.45,70.59-4.27
			c2.96,0.15,5.92,0.36,8.87,0.63C815.9,121.86,815.89,118.86,813.98,118.69L813.98,118.69z"/>
	</g>
</g>
<g>
	<g>
		<path d="M1075.45,869.23c1.93,0,1.93-3,0-3C1073.52,866.23,1073.51,869.23,1075.45,869.23L1075.45,869.23z"/>
	</g>
</g>
</svg>
